<?xml version="1.0" encoding="UTF-8"?>
<mxfile host="app.diagrams.net" modified="2023-03-03T13:12:25.087Z" agent="5.0 (Windows NT 10.0; Win64; x64) AppleWebKit/537.36 (KHTML, like Gecko) Chrome/110.0.0.0 Safari/537.36" etag="Rhx5V9msdY1GhPxkNJL_" version="20.8.23" type="browser">
  <diagram id="BkzSxsWmDnVCYI9GbU2Q" name="Page-1">
    <mxGraphModel dx="1221" dy="520" grid="1" gridSize="10" guides="1" tooltips="1" connect="1" arrows="1" fold="1" page="1" pageScale="1" pageWidth="827" pageHeight="1169" math="0" shadow="0">
      <root>
        <mxCell id="0" />
        <mxCell id="1" parent="0" />
        <mxCell id="XJhIEE1tjyMydZubOQLV-2" value="" style="shape=ellipse;html=1;fillColor=#000000;strokeWidth=2;verticalLabelPosition=bottom;verticalAlignment=top;perimeter=ellipsePerimeter;" parent="1" vertex="1">
          <mxGeometry x="400" y="12" width="40" height="40" as="geometry" />
        </mxCell>
        <mxCell id="XJhIEE1tjyMydZubOQLV-4" value="" style="endArrow=classic;html=1;rounded=0;exitX=0.5;exitY=1;exitDx=0;exitDy=0;" parent="1" source="XJhIEE1tjyMydZubOQLV-2" edge="1">
          <mxGeometry width="50" height="50" relative="1" as="geometry">
            <mxPoint x="360" y="340" as="sourcePoint" />
            <mxPoint x="420" y="100" as="targetPoint" />
          </mxGeometry>
        </mxCell>
        <mxCell id="XJhIEE1tjyMydZubOQLV-5" value="&lt;div&gt;Search for items&amp;nbsp;&lt;/div&gt;" style="rounded=1;whiteSpace=wrap;html=1;strokeWidth=1;" parent="1" vertex="1">
          <mxGeometry x="360" y="210" width="120" height="50" as="geometry" />
        </mxCell>
        <mxCell id="XJhIEE1tjyMydZubOQLV-6" value="" style="endArrow=classic;html=1;rounded=0;exitX=0.5;exitY=1;exitDx=0;exitDy=0;" parent="1" edge="1" source="Yu3wiYNvBDVIHfezELYz-4">
          <mxGeometry width="50" height="50" relative="1" as="geometry">
            <mxPoint x="419.5" y="170" as="sourcePoint" />
            <mxPoint x="420" y="210" as="targetPoint" />
          </mxGeometry>
        </mxCell>
        <mxCell id="XJhIEE1tjyMydZubOQLV-7" value="fork" style="line;strokeWidth=10;html=1;" parent="1" vertex="1">
          <mxGeometry x="320" y="310" width="200" height="10" as="geometry" />
        </mxCell>
        <mxCell id="XJhIEE1tjyMydZubOQLV-8" value="" style="endArrow=classic;html=1;rounded=0;exitX=0.5;exitY=1;exitDx=0;exitDy=0;" parent="1" source="XJhIEE1tjyMydZubOQLV-5" target="XJhIEE1tjyMydZubOQLV-7" edge="1">
          <mxGeometry width="50" height="50" relative="1" as="geometry">
            <mxPoint x="360" y="340" as="sourcePoint" />
            <mxPoint x="410" y="290" as="targetPoint" />
          </mxGeometry>
        </mxCell>
        <mxCell id="XJhIEE1tjyMydZubOQLV-9" value="&lt;div&gt;Search for a specific dish&lt;/div&gt;" style="rounded=1;whiteSpace=wrap;html=1;strokeWidth=1;" parent="1" vertex="1">
          <mxGeometry x="260" y="380" width="120" height="50" as="geometry" />
        </mxCell>
        <mxCell id="XJhIEE1tjyMydZubOQLV-10" value="&lt;div&gt;Search for a restaurant&lt;/div&gt;" style="rounded=1;whiteSpace=wrap;html=1;strokeWidth=1;" parent="1" vertex="1">
          <mxGeometry x="450" y="380" width="120" height="50" as="geometry" />
        </mxCell>
        <mxCell id="XJhIEE1tjyMydZubOQLV-11" value="" style="endArrow=classic;html=1;rounded=0;entryX=0.5;entryY=0;entryDx=0;entryDy=0;" parent="1" target="XJhIEE1tjyMydZubOQLV-9" edge="1">
          <mxGeometry width="50" height="50" relative="1" as="geometry">
            <mxPoint x="320" y="350" as="sourcePoint" />
            <mxPoint x="410" y="290" as="targetPoint" />
          </mxGeometry>
        </mxCell>
        <mxCell id="XJhIEE1tjyMydZubOQLV-12" value="" style="endArrow=none;html=1;rounded=0;" parent="1" edge="1">
          <mxGeometry width="50" height="50" relative="1" as="geometry">
            <mxPoint x="320" y="350" as="sourcePoint" />
            <mxPoint x="370" y="350" as="targetPoint" />
          </mxGeometry>
        </mxCell>
        <mxCell id="XJhIEE1tjyMydZubOQLV-13" value="" style="endArrow=none;html=1;rounded=0;entryX=0.25;entryY=0.5;entryDx=0;entryDy=0;entryPerimeter=0;" parent="1" target="XJhIEE1tjyMydZubOQLV-7" edge="1">
          <mxGeometry width="50" height="50" relative="1" as="geometry">
            <mxPoint x="370" y="350" as="sourcePoint" />
            <mxPoint x="410" y="290" as="targetPoint" />
          </mxGeometry>
        </mxCell>
        <mxCell id="XJhIEE1tjyMydZubOQLV-14" value="" style="endArrow=classic;html=1;rounded=0;entryX=0.5;entryY=0;entryDx=0;entryDy=0;" parent="1" target="XJhIEE1tjyMydZubOQLV-10" edge="1">
          <mxGeometry width="50" height="50" relative="1" as="geometry">
            <mxPoint x="510" y="350" as="sourcePoint" />
            <mxPoint x="510" y="320" as="targetPoint" />
          </mxGeometry>
        </mxCell>
        <mxCell id="XJhIEE1tjyMydZubOQLV-15" value="" style="endArrow=none;html=1;rounded=0;" parent="1" edge="1">
          <mxGeometry width="50" height="50" relative="1" as="geometry">
            <mxPoint x="460" y="350" as="sourcePoint" />
            <mxPoint x="510" y="350" as="targetPoint" />
          </mxGeometry>
        </mxCell>
        <mxCell id="XJhIEE1tjyMydZubOQLV-16" value="" style="endArrow=none;html=1;rounded=0;entryX=0.698;entryY=0.3;entryDx=0;entryDy=0;entryPerimeter=0;" parent="1" edge="1">
          <mxGeometry width="50" height="50" relative="1" as="geometry">
            <mxPoint x="460" y="350" as="sourcePoint" />
            <mxPoint x="459.5999999999999" y="319" as="targetPoint" />
          </mxGeometry>
        </mxCell>
        <mxCell id="Yu3wiYNvBDVIHfezELYz-8" value="" style="edgeStyle=orthogonalEdgeStyle;rounded=0;orthogonalLoop=1;jettySize=auto;html=1;" edge="1" parent="1" source="XJhIEE1tjyMydZubOQLV-17" target="XJhIEE1tjyMydZubOQLV-20">
          <mxGeometry relative="1" as="geometry" />
        </mxCell>
        <mxCell id="XJhIEE1tjyMydZubOQLV-17" value="join" style="line;strokeWidth=10;html=1;" parent="1" vertex="1">
          <mxGeometry x="280" y="470" width="280" height="10" as="geometry" />
        </mxCell>
        <mxCell id="XJhIEE1tjyMydZubOQLV-18" value="" style="endArrow=classic;html=1;rounded=0;entryX=0.143;entryY=0;entryDx=0;entryDy=0;entryPerimeter=0;exitX=0.5;exitY=1;exitDx=0;exitDy=0;" parent="1" source="XJhIEE1tjyMydZubOQLV-9" target="XJhIEE1tjyMydZubOQLV-17" edge="1">
          <mxGeometry width="50" height="50" relative="1" as="geometry">
            <mxPoint x="320" y="440" as="sourcePoint" />
            <mxPoint x="320" y="460" as="targetPoint" />
          </mxGeometry>
        </mxCell>
        <mxCell id="XJhIEE1tjyMydZubOQLV-19" value="" style="endArrow=classic;html=1;rounded=0;exitX=0.5;exitY=1;exitDx=0;exitDy=0;entryX=0.82;entryY=0.4;entryDx=0;entryDy=0;entryPerimeter=0;" parent="1" source="XJhIEE1tjyMydZubOQLV-10" target="XJhIEE1tjyMydZubOQLV-17" edge="1">
          <mxGeometry width="50" height="50" relative="1" as="geometry">
            <mxPoint x="360" y="340" as="sourcePoint" />
            <mxPoint x="410" y="290" as="targetPoint" />
          </mxGeometry>
        </mxCell>
        <mxCell id="XJhIEE1tjyMydZubOQLV-20" value="&lt;div&gt;Select items in the menu&lt;/div&gt;" style="rounded=1;whiteSpace=wrap;html=1;strokeWidth=1;" parent="1" vertex="1">
          <mxGeometry x="360" y="540" width="120" height="50" as="geometry" />
        </mxCell>
        <mxCell id="XJhIEE1tjyMydZubOQLV-21" value="" style="endArrow=classic;html=1;rounded=0;entryX=0.5;entryY=0;entryDx=0;entryDy=0;" parent="1" source="XJhIEE1tjyMydZubOQLV-17" target="XJhIEE1tjyMydZubOQLV-20" edge="1">
          <mxGeometry width="50" height="50" relative="1" as="geometry">
            <mxPoint x="360" y="520" as="sourcePoint" />
            <mxPoint x="410" y="470" as="targetPoint" />
          </mxGeometry>
        </mxCell>
        <mxCell id="XJhIEE1tjyMydZubOQLV-22" value="&lt;div&gt;Add to cart&lt;/div&gt;" style="rounded=1;whiteSpace=wrap;html=1;strokeWidth=1;" parent="1" vertex="1">
          <mxGeometry x="360" y="650" width="120" height="50" as="geometry" />
        </mxCell>
        <mxCell id="XJhIEE1tjyMydZubOQLV-24" value="Finalize items&lt;br&gt;&amp;nbsp;&amp;amp; amount?" style="rhombus;whiteSpace=wrap;html=1;" parent="1" vertex="1">
          <mxGeometry x="350" y="777" width="140" height="80" as="geometry" />
        </mxCell>
        <mxCell id="XJhIEE1tjyMydZubOQLV-25" value="" style="endArrow=classic;html=1;rounded=0;entryX=0.5;entryY=0;entryDx=0;entryDy=0;exitX=0.5;exitY=1;exitDx=0;exitDy=0;" parent="1" source="XJhIEE1tjyMydZubOQLV-22" target="XJhIEE1tjyMydZubOQLV-24" edge="1">
          <mxGeometry width="50" height="50" relative="1" as="geometry">
            <mxPoint x="360" y="770" as="sourcePoint" />
            <mxPoint x="410" y="720" as="targetPoint" />
          </mxGeometry>
        </mxCell>
        <mxCell id="XJhIEE1tjyMydZubOQLV-26" value="Pay for order" style="rounded=1;whiteSpace=wrap;html=1;strokeWidth=1;" parent="1" vertex="1">
          <mxGeometry x="360" y="930" width="120" height="50" as="geometry" />
        </mxCell>
        <mxCell id="XJhIEE1tjyMydZubOQLV-27" value="" style="endArrow=classic;html=1;rounded=0;entryX=0.5;entryY=0;entryDx=0;entryDy=0;" parent="1" source="XJhIEE1tjyMydZubOQLV-24" target="XJhIEE1tjyMydZubOQLV-26" edge="1">
          <mxGeometry width="50" height="50" relative="1" as="geometry">
            <mxPoint x="360" y="810" as="sourcePoint" />
            <mxPoint x="410" y="760" as="targetPoint" />
          </mxGeometry>
        </mxCell>
        <mxCell id="XJhIEE1tjyMydZubOQLV-28" value="&lt;div&gt;Order placed&lt;/div&gt;" style="rounded=1;whiteSpace=wrap;html=1;strokeWidth=1;" parent="1" vertex="1">
          <mxGeometry x="360" y="1235" width="120" height="50" as="geometry" />
        </mxCell>
        <mxCell id="XJhIEE1tjyMydZubOQLV-30" value="&lt;div&gt;Order received by nearest restaurant&lt;/div&gt;" style="rounded=1;whiteSpace=wrap;html=1;strokeWidth=1;" parent="1" vertex="1">
          <mxGeometry x="360" y="1329" width="120" height="50" as="geometry" />
        </mxCell>
        <mxCell id="XJhIEE1tjyMydZubOQLV-31" value="" style="endArrow=classic;html=1;rounded=0;entryX=0.5;entryY=0;entryDx=0;entryDy=0;exitX=0.5;exitY=1;exitDx=0;exitDy=0;" parent="1" source="XJhIEE1tjyMydZubOQLV-28" target="XJhIEE1tjyMydZubOQLV-30" edge="1">
          <mxGeometry width="50" height="50" relative="1" as="geometry">
            <mxPoint x="360" y="850" as="sourcePoint" />
            <mxPoint x="420" y="1010" as="targetPoint" />
          </mxGeometry>
        </mxCell>
        <mxCell id="XJhIEE1tjyMydZubOQLV-32" value="&lt;div&gt;Pack items&lt;/div&gt;" style="rounded=1;whiteSpace=wrap;html=1;strokeWidth=1;" parent="1" vertex="1">
          <mxGeometry x="360" y="1414" width="120" height="50" as="geometry" />
        </mxCell>
        <mxCell id="XJhIEE1tjyMydZubOQLV-33" value="" style="endArrow=classic;html=1;rounded=0;entryX=0.5;entryY=0;entryDx=0;entryDy=0;" parent="1" source="XJhIEE1tjyMydZubOQLV-30" target="XJhIEE1tjyMydZubOQLV-32" edge="1">
          <mxGeometry width="50" height="50" relative="1" as="geometry">
            <mxPoint x="360" y="980" as="sourcePoint" />
            <mxPoint x="410" y="930" as="targetPoint" />
          </mxGeometry>
        </mxCell>
        <mxCell id="XJhIEE1tjyMydZubOQLV-34" value="" style="html=1;shape=mxgraph.sysml.actFinal;strokeWidth=2;verticalLabelPosition=bottom;verticalAlignment=top;" parent="1" vertex="1">
          <mxGeometry x="400" y="1498" width="40" height="40" as="geometry" />
        </mxCell>
        <mxCell id="XJhIEE1tjyMydZubOQLV-35" value="" style="endArrow=classic;html=1;rounded=0;entryX=0.5;entryY=0;entryDx=0;entryDy=0;entryPerimeter=0;" parent="1" source="XJhIEE1tjyMydZubOQLV-32" target="XJhIEE1tjyMydZubOQLV-34" edge="1">
          <mxGeometry width="50" height="50" relative="1" as="geometry">
            <mxPoint x="360" y="1060" as="sourcePoint" />
            <mxPoint x="410" y="1010" as="targetPoint" />
          </mxGeometry>
        </mxCell>
        <mxCell id="XJhIEE1tjyMydZubOQLV-37" value="" style="endArrow=none;html=1;rounded=0;" parent="1" edge="1">
          <mxGeometry width="50" height="50" relative="1" as="geometry">
            <mxPoint x="720" y="240" as="sourcePoint" />
            <mxPoint x="720" y="820" as="targetPoint" />
          </mxGeometry>
        </mxCell>
        <mxCell id="XJhIEE1tjyMydZubOQLV-39" value="No" style="text;html=1;align=center;verticalAlign=middle;resizable=0;points=[];autosize=1;strokeColor=none;fillColor=none;" parent="1" vertex="1">
          <mxGeometry x="491" y="788" width="40" height="30" as="geometry" />
        </mxCell>
        <mxCell id="Yu3wiYNvBDVIHfezELYz-2" value="" style="endArrow=classic;html=1;rounded=0;" edge="1" parent="1">
          <mxGeometry width="50" height="50" relative="1" as="geometry">
            <mxPoint x="720" y="240" as="sourcePoint" />
            <mxPoint x="480" y="240" as="targetPoint" />
            <Array as="points" />
          </mxGeometry>
        </mxCell>
        <mxCell id="Yu3wiYNvBDVIHfezELYz-3" value="Yes" style="text;html=1;align=center;verticalAlign=middle;resizable=0;points=[];autosize=1;strokeColor=none;fillColor=none;" vertex="1" parent="1">
          <mxGeometry x="423" y="867" width="40" height="30" as="geometry" />
        </mxCell>
        <mxCell id="Yu3wiYNvBDVIHfezELYz-5" style="edgeStyle=orthogonalEdgeStyle;rounded=0;orthogonalLoop=1;jettySize=auto;html=1;entryX=1;entryY=0.5;entryDx=0;entryDy=0;entryPerimeter=0;" edge="1" parent="1" source="Yu3wiYNvBDVIHfezELYz-4" target="XJhIEE1tjyMydZubOQLV-34">
          <mxGeometry relative="1" as="geometry">
            <mxPoint x="780" y="1100" as="targetPoint" />
            <Array as="points">
              <mxPoint x="800" y="141" />
              <mxPoint x="800" y="1510" />
              <mxPoint x="440" y="1510" />
            </Array>
          </mxGeometry>
        </mxCell>
        <mxCell id="Yu3wiYNvBDVIHfezELYz-4" value="Sign up complete?" style="rhombus;whiteSpace=wrap;html=1;" vertex="1" parent="1">
          <mxGeometry x="379" y="101" width="80" height="80" as="geometry" />
        </mxCell>
        <mxCell id="Yu3wiYNvBDVIHfezELYz-6" value="No" style="text;html=1;align=center;verticalAlign=middle;resizable=0;points=[];autosize=1;strokeColor=none;fillColor=none;" vertex="1" parent="1">
          <mxGeometry x="460" y="112" width="40" height="30" as="geometry" />
        </mxCell>
        <mxCell id="Yu3wiYNvBDVIHfezELYz-7" value="Yes" style="text;html=1;align=center;verticalAlign=middle;resizable=0;points=[];autosize=1;strokeColor=none;fillColor=none;" vertex="1" parent="1">
          <mxGeometry x="423" y="175" width="40" height="30" as="geometry" />
        </mxCell>
        <mxCell id="Yu3wiYNvBDVIHfezELYz-14" value="fork" style="line;strokeWidth=10;html=1;" vertex="1" parent="1">
          <mxGeometry x="330" y="1023" width="200" height="10" as="geometry" />
        </mxCell>
        <mxCell id="Yu3wiYNvBDVIHfezELYz-15" value="&lt;div&gt;Card Payment&lt;/div&gt;" style="rounded=1;whiteSpace=wrap;html=1;strokeWidth=1;" vertex="1" parent="1">
          <mxGeometry x="248" y="1106" width="120" height="60" as="geometry" />
        </mxCell>
        <mxCell id="Yu3wiYNvBDVIHfezELYz-17" value="&lt;div&gt;UPI Payment&lt;/div&gt;" style="rounded=1;whiteSpace=wrap;html=1;strokeWidth=1;" vertex="1" parent="1">
          <mxGeometry x="490" y="1109" width="120" height="60" as="geometry" />
        </mxCell>
        <mxCell id="Yu3wiYNvBDVIHfezELYz-18" value="" style="endArrow=none;html=1;rounded=0;" edge="1" parent="1" source="XJhIEE1tjyMydZubOQLV-24">
          <mxGeometry width="50" height="50" relative="1" as="geometry">
            <mxPoint x="180" y="830" as="sourcePoint" />
            <mxPoint x="720" y="817" as="targetPoint" />
            <Array as="points">
              <mxPoint x="610" y="817" />
            </Array>
          </mxGeometry>
        </mxCell>
        <mxCell id="Yu3wiYNvBDVIHfezELYz-19" value="" style="endArrow=none;html=1;rounded=0;entryX=0.25;entryY=0.5;entryDx=0;entryDy=0;entryPerimeter=0;" edge="1" parent="1" target="Yu3wiYNvBDVIHfezELYz-14">
          <mxGeometry width="50" height="50" relative="1" as="geometry">
            <mxPoint x="380" y="1077" as="sourcePoint" />
            <mxPoint x="380" y="1042" as="targetPoint" />
          </mxGeometry>
        </mxCell>
        <mxCell id="Yu3wiYNvBDVIHfezELYz-20" value="" style="endArrow=none;html=1;rounded=0;" edge="1" parent="1">
          <mxGeometry width="50" height="50" relative="1" as="geometry">
            <mxPoint x="330" y="1075" as="sourcePoint" />
            <mxPoint x="380" y="1075" as="targetPoint" />
          </mxGeometry>
        </mxCell>
        <mxCell id="Yu3wiYNvBDVIHfezELYz-22" value="" style="endArrow=classic;html=1;rounded=0;entryX=0.5;entryY=0;entryDx=0;entryDy=0;" edge="1" parent="1">
          <mxGeometry width="50" height="50" relative="1" as="geometry">
            <mxPoint x="330" y="1075" as="sourcePoint" />
            <mxPoint x="330" y="1105" as="targetPoint" />
          </mxGeometry>
        </mxCell>
        <mxCell id="Yu3wiYNvBDVIHfezELYz-23" value="" style="endArrow=none;html=1;rounded=0;" edge="1" parent="1">
          <mxGeometry width="50" height="50" relative="1" as="geometry">
            <mxPoint x="470" y="1080" as="sourcePoint" />
            <mxPoint x="470" y="1030" as="targetPoint" />
          </mxGeometry>
        </mxCell>
        <mxCell id="Yu3wiYNvBDVIHfezELYz-24" value="" style="endArrow=none;html=1;rounded=0;" edge="1" parent="1">
          <mxGeometry width="50" height="50" relative="1" as="geometry">
            <mxPoint x="470" y="1080" as="sourcePoint" />
            <mxPoint x="520" y="1080" as="targetPoint" />
            <Array as="points" />
          </mxGeometry>
        </mxCell>
        <mxCell id="Yu3wiYNvBDVIHfezELYz-25" value="" style="endArrow=classic;html=1;rounded=0;" edge="1" parent="1">
          <mxGeometry width="50" height="50" relative="1" as="geometry">
            <mxPoint x="521" y="1080" as="sourcePoint" />
            <mxPoint x="521" y="1110" as="targetPoint" />
          </mxGeometry>
        </mxCell>
        <mxCell id="Yu3wiYNvBDVIHfezELYz-26" value="join" style="line;strokeWidth=10;html=1;" vertex="1" parent="1">
          <mxGeometry x="290" y="1193" width="280" height="10" as="geometry" />
        </mxCell>
        <mxCell id="Yu3wiYNvBDVIHfezELYz-27" value="" style="endArrow=classic;html=1;rounded=0;exitX=0.5;exitY=1;exitDx=0;exitDy=0;" edge="1" parent="1">
          <mxGeometry width="50" height="50" relative="1" as="geometry">
            <mxPoint x="330" y="1165" as="sourcePoint" />
            <mxPoint x="330" y="1190" as="targetPoint" />
          </mxGeometry>
        </mxCell>
        <mxCell id="Yu3wiYNvBDVIHfezELYz-28" value="" style="endArrow=classic;html=1;rounded=0;exitX=0.5;exitY=1;exitDx=0;exitDy=0;" edge="1" parent="1">
          <mxGeometry width="50" height="50" relative="1" as="geometry">
            <mxPoint x="546" y="1169" as="sourcePoint" />
            <mxPoint x="546" y="1194" as="targetPoint" />
          </mxGeometry>
        </mxCell>
        <mxCell id="Yu3wiYNvBDVIHfezELYz-29" value="" style="endArrow=classic;html=1;rounded=0;" edge="1" parent="1">
          <mxGeometry width="50" height="50" relative="1" as="geometry">
            <mxPoint x="431" y="1200" as="sourcePoint" />
            <mxPoint x="431" y="1234" as="targetPoint" />
          </mxGeometry>
        </mxCell>
        <mxCell id="Yu3wiYNvBDVIHfezELYz-30" value="" style="endArrow=classic;html=1;rounded=0;exitX=0.5;exitY=1;exitDx=0;exitDy=0;entryX=0.5;entryY=0;entryDx=0;entryDy=0;" edge="1" parent="1" source="XJhIEE1tjyMydZubOQLV-20" target="XJhIEE1tjyMydZubOQLV-22">
          <mxGeometry width="50" height="50" relative="1" as="geometry">
            <mxPoint x="430" y="589" as="sourcePoint" />
            <mxPoint x="430" y="650" as="targetPoint" />
            <Array as="points">
              <mxPoint x="420" y="620" />
            </Array>
          </mxGeometry>
        </mxCell>
        <mxCell id="Yu3wiYNvBDVIHfezELYz-31" value="" style="endArrow=classic;html=1;rounded=0;" edge="1" parent="1">
          <mxGeometry width="50" height="50" relative="1" as="geometry">
            <mxPoint x="420" y="980" as="sourcePoint" />
            <mxPoint x="420" y="1020" as="targetPoint" />
          </mxGeometry>
        </mxCell>
      </root>
    </mxGraphModel>
  </diagram>
</mxfile>
